<?xml version="1.0" standalone="no"?>
<!DOCTYPE svg PUBLIC "-//W3C//DTD SVG 20010904//EN"
 "http://www.w3.org/TR/2001/REC-SVG-20010904/DTD/svg10.dtd">
<svg version="1.0" xmlns="http://www.w3.org/2000/svg"
 width="200.000000pt" height="200.000000pt" viewBox="0 0 200.000000 200.000000"
 preserveAspectRatio="xMidYMid meet">
<metadata>
Created by potrace 1.16, written by Peter Selinger 2001-2019
</metadata>
<g transform="translate(0.000000,200.000000) scale(0.100000,-0.100000)"
fill="#000000" stroke="none">
<path d="M894 1821 c-47 -21 -84 -84 -84 -140 0 -25 -12 -46 -50 -89 -73 -82
-147 -197 -231 -357 -40 -77 -99 -187 -132 -244 -144 -252 -297 -634 -297
-743 0 -53 17 -91 38 -86 9 3 121 74 247 159 236 159 452 278 624 344 131 51
511 158 686 194 137 29 152 34 179 63 26 29 28 36 23 90 -6 73 -47 161 -134
292 -77 116 -167 213 -278 303 -234 188 -464 271 -591 214z m212 -52 c208 -64
435 -243 595 -469 62 -87 139 -223 139 -246 0 -6 -23 -14 -51 -18 -35 -5 -59
-15 -76 -32 -14 -14 -26 -24 -27 -22 -54 93 -177 255 -257 339 -30 31 -109
100 -177 153 -127 101 -272 178 -362 192 -42 7 -47 15 -30 58 24 65 123 83
246 45z m-90 -169 c194 -97 506 -411 607 -609 31 -62 30 -64 -43 -75 -117 -18
-406 -118 -690 -239 -275 -117 -504 -243 -655 -361 -38 -30 -71 -51 -73 -47
-2 5 15 66 38 135 106 325 263 642 537 1084 l95 152 53 0 c41 0 69 -8 131 -40z"/>
<path d="M900 1555 c-101 -31 -170 -125 -170 -231 0 -97 44 -134 160 -134 94
0 153 39 200 130 52 99 19 192 -82 234 -44 19 -49 19 -108 1z m147 -70 c62
-72 -9 -231 -113 -251 -57 -11 -122 1 -151 27 -21 21 -24 30 -19 67 3 23 15
60 26 81 50 99 200 143 257 76z"/>
<path d="M1201 1234 c-82 -22 -146 -74 -176 -143 -47 -106 22 -190 156 -191
102 0 164 34 204 114 75 150 -22 265 -184 220z m144 -59 c32 -31 34 -104 5
-153 -74 -121 -310 -103 -310 24 0 32 7 45 48 84 54 52 93 68 175 69 49 1 62
-3 82 -24z"/>
<path d="M624 1021 c-33 -16 -77 -43 -97 -60 -43 -38 -87 -123 -87 -167 0 -94
163 -156 275 -105 91 41 148 132 149 239 1 60 -1 65 -32 93 -45 41 -122 41
-208 0z m151 -15 c54 -23 67 -67 44 -151 -15 -55 -82 -120 -139 -135 -53 -14
-164 0 -189 24 -35 36 -2 137 64 194 43 38 82 59 132 71 53 12 50 13 88 -3z"/>
</g>
</svg>
